<svg xmlns="http://www.w3.org/2000/svg" width="1350" height="980" viewBox="0 0 1350 980" font-family="DejaVu Sans, Helvetica, Arial, sans-serif">
  <defs>
    <marker id="arrow" viewBox="0 0 10 10" refX="9" refY="5" markerWidth="7" markerHeight="7" orient="auto-start-reverse">
      <path d="M 0 0 L 10 5 L 0 10 z" fill="#2a6fb0"/>
    </marker>
  </defs>
  <rect width="1350" height="980" fill="#ffffff"/>

  <text x="40" y="46" font-size="26" font-weight="bold" fill="#16324f">Cloud infrastructure — temporal-video-translator</text>

  <!-- clients outside the RG -->
  <rect x="40" y="70" width="330" height="58" rx="8" fill="#f7f9fb" stroke="#16324f" stroke-width="1.5"/>
  <text x="56" y="94" font-size="13" font-weight="bold" fill="#16324f">Clients (test.sh / tvt.temporal.start, kubectl, helm)</text>
  <text x="56" y="114" font-size="11" fill="#556">tvt-temporal.eastus.cloudapp.azure.com:7233 (public LB)</text>

  <!-- resource group -->
  <rect x="30" y="150" width="1290" height="770" rx="10" fill="none" stroke="#16324f" stroke-width="2"/>
  <text x="50" y="178" font-size="15" font-weight="bold" fill="#16324f">Azure resource group: temporal-video-translator (eastus)</text>

  <!-- AKS -->
  <rect x="60" y="200" width="620" height="470" rx="8" fill="#f7f9fb" stroke="#2a6fb0" stroke-width="1.5"/>
  <text x="78" y="228" font-size="14" font-weight="bold" fill="#16324f">AKS: tvt-aks (Kubernetes v1.35)</text>
  <text x="78" y="248" font-size="11" fill="#556">nodepool1: 2 &#215; Standard_D4d_v4 &#8226; pool2: 1 &#215; Standard_D4s_v3</text>

  <rect x="80" y="264" width="280" height="86" rx="6" fill="#eef3f8" stroke="#ccd5e0" stroke-width="1.5"/>
  <text x="94" y="286" font-size="12" font-weight="bold" fill="#16324f">temporal-video-translator-worker</text>
  <text x="94" y="304" font-size="10.5" fill="#556">2 replicas, main image</text>
  <text x="94" y="320" font-size="10.5" fill="#556">workflow + transcribe/summarize/</text>
  <text x="94" y="336" font-size="10.5" fill="#556">translate/util activity pools</text>

  <rect x="380" y="264" width="280" height="86" rx="6" fill="#eef3f8" stroke="#ccd5e0" stroke-width="1.5"/>
  <text x="394" y="286" font-size="12" font-weight="bold" fill="#16324f">temporal-video-translator-screenshot</text>
  <text x="394" y="304" font-size="10.5" fill="#556">3 replicas, ffmpeg image</text>
  <text x="394" y="320" font-size="10.5" fill="#556">dedicated screenshot pool only</text>

  <rect x="80" y="366" width="280" height="70" rx="6" fill="#eef3f8" stroke="#ccd5e0" stroke-width="1.5"/>
  <text x="94" y="388" font-size="12" font-weight="bold" fill="#16324f">temporal (auto-setup 1.29.7)</text>
  <text x="94" y="406" font-size="10.5" fill="#556">Temporal server, all services in one pod</text>
  <text x="94" y="422" font-size="10.5" fill="#556">temporal-frontend Service &#8594; public LB</text>

  <rect x="380" y="366" width="280" height="70" rx="6" fill="#eef3f8" stroke="#ccd5e0" stroke-width="1.5"/>
  <text x="394" y="388" font-size="12" font-weight="bold" fill="#16324f">tvt-postgres (postgres:16)</text>
  <text x="394" y="406" font-size="10.5" fill="#556">Temporal persistence, 8Gi PVC</text>
  <text x="394" y="422" font-size="10.5" fill="#556">(Azure managed disk)</text>

  <rect x="80" y="452" width="280" height="56" rx="6" fill="#eef3f8" stroke="#ccd5e0" stroke-width="1.5"/>
  <text x="94" y="474" font-size="12" font-weight="bold" fill="#16324f">temporal-ui (2.52.1)</text>
  <text x="94" y="492" font-size="10.5" fill="#556">ClusterIP; admin.sh port-forward</text>

  <rect x="380" y="452" width="280" height="56" rx="6" fill="#e6f4ea" stroke="#1c7c43" stroke-width="1.5"/>
  <text x="394" y="474" font-size="12" font-weight="bold" fill="#1c7c43">Public IP + DNS label</text>
  <text x="394" y="492" font-size="10.5" fill="#2c5e40">tvt-temporal.eastus.cloudapp.azure.com</text>

  <rect x="80" y="524" width="580" height="52" rx="6" fill="#eef3f8" stroke="#ccd5e0" stroke-width="1.5"/>
  <text x="94" y="544" font-size="12" font-weight="bold" fill="#16324f">temporal-video-translator-web (Flask/gunicorn, 1 replica)</text>
  <text x="94" y="562" font-size="10.5" fill="#556">submit + progress UI &#8226; internal LB (VNet-only) &#8226; reached via web.sh port-forward</text>

  <rect x="80" y="590" width="580" height="70" rx="6" fill="#fdf3e3" stroke="#b7791f" stroke-width="1.5"/>
  <text x="94" y="610" font-size="12" font-weight="bold" fill="#b7791f">Deliverables (built by Makefile, deployed by helm)</text>
  <text x="94" y="628" font-size="10.5" fill="#556">helm chart (workers + web + temporal server + secrets) &#8226; secrets.yaml &#8594; k8s Secrets</text>
  <text x="94" y="644" font-size="10.5" fill="#556">images: temporal-video-translator (PDF stack) and -screenshot (ffmpeg) &#8226; tvt/ package</text>

  <!-- ACR -->
  <rect x="720" y="200" width="270" height="120" rx="8" fill="#f7f9fb" stroke="#2a6fb0" stroke-width="1.5"/>
  <text x="738" y="228" font-size="14" font-weight="bold" fill="#16324f">ACR: tvttranslator</text>
  <text x="738" y="250" font-size="11" fill="#556">tvttranslator.azurecr.io</text>
  <text x="738" y="268" font-size="11" fill="#556">temporal-video-translator:&#123;VERSION&#125;</text>
  <text x="738" y="286" font-size="11" fill="#556">temporal-video-translator-screenshot</text>
  <text x="738" y="304" font-size="11" fill="#556">AKS pulls via kubelet AcrPull role</text>

  <!-- Service principal -->
  <rect x="1020" y="200" width="280" height="120" rx="8" fill="#f7f9fb" stroke="#2a6fb0" stroke-width="1.5"/>
  <text x="1038" y="228" font-size="14" font-weight="bold" fill="#16324f">Service principal: tvt-worker</text>
  <text x="1038" y="250" font-size="11" fill="#556">RG roles: Contributor, Cognitive Services</text>
  <text x="1038" y="268" font-size="11" fill="#556">User, Storage Blob Data Contributor</text>
  <text x="1038" y="286" font-size="11" fill="#556">AZURE_CLIENT_ID/SECRET in k8s Secret;</text>
  <text x="1038" y="304" font-size="11" fill="#556">Entra ID data-plane auth — no stored keys</text>

  <!-- storage -->
  <rect x="720" y="350" width="580" height="270" rx="8" fill="#f7f9fb" stroke="#2a6fb0" stroke-width="1.5"/>
  <text x="738" y="378" font-size="14" font-weight="bold" fill="#16324f">Storage account: tvttranslations</text>

  <rect x="738" y="396" width="260" height="44" rx="6" fill="#eef3f8" stroke="#ccd5e0" stroke-width="1.2"/>
  <text x="750" y="414" font-size="11.5" font-weight="bold" fill="#16324f">videos</text>
  <text x="750" y="430" font-size="10" fill="#667">staged downloads</text>
  <rect x="920" y="402" width="60" height="18" rx="4" fill="#f0f2f5" stroke="#99a"/>
  <text x="950" y="415" font-size="9.5" fill="#667" text-anchor="middle">private</text>

  <rect x="1020" y="396" width="260" height="44" rx="6" fill="#eef3f8" stroke="#ccd5e0" stroke-width="1.2"/>
  <text x="1032" y="414" font-size="11.5" font-weight="bold" fill="#16324f">scratchscreenshots</text>
  <text x="1032" y="430" font-size="10" fill="#667">screenshot candidates</text>
  <rect x="1202" y="402" width="60" height="18" rx="4" fill="#f0f2f5" stroke="#99a"/>
  <text x="1232" y="415" font-size="9.5" fill="#667" text-anchor="middle">private</text>

  <rect x="738" y="456" width="260" height="44" rx="6" fill="#eef3f8" stroke="#ccd5e0" stroke-width="1.2"/>
  <text x="750" y="474" font-size="11.5" font-weight="bold" fill="#16324f">json</text>
  <text x="750" y="490" font-size="10" fill="#667">result documents</text>
  <rect x="920" y="462" width="60" height="18" rx="4" fill="#e6f4ea" stroke="#1c7c43"/>
  <text x="950" y="475" font-size="9.5" fill="#1c7c43" text-anchor="middle">public</text>

  <rect x="1020" y="456" width="260" height="44" rx="6" fill="#eef3f8" stroke="#ccd5e0" stroke-width="1.2"/>
  <text x="1032" y="474" font-size="11.5" font-weight="bold" fill="#16324f">screenshots</text>
  <text x="1032" y="490" font-size="10" fill="#667">selected best frame</text>
  <rect x="1202" y="462" width="60" height="18" rx="4" fill="#e6f4ea" stroke="#1c7c43"/>
  <text x="1232" y="475" font-size="9.5" fill="#1c7c43" text-anchor="middle">public</text>

  <rect x="738" y="516" width="260" height="44" rx="6" fill="#eef3f8" stroke="#ccd5e0" stroke-width="1.2"/>
  <text x="750" y="534" font-size="11.5" font-weight="bold" fill="#16324f">pdf</text>
  <text x="750" y="550" font-size="10" fill="#667">rendered reports</text>
  <rect x="920" y="522" width="60" height="18" rx="4" fill="#e6f4ea" stroke="#1c7c43"/>
  <text x="950" y="535" font-size="9.5" fill="#1c7c43" text-anchor="middle">public</text>

  <text x="738" y="596" font-size="10.5" fill="#889">json + pdf blobs named &#123;workflow-id&#125;-&#123;video&#125;.json/.pdf</text>

  <!-- AI services -->
  <rect x="60" y="700" width="380" height="110" rx="8" fill="#f7f9fb" stroke="#2a6fb0" stroke-width="1.5"/>
  <text x="78" y="728" font-size="14" font-weight="bold" fill="#16324f">tvt-video-indexer</text>
  <text x="78" y="750" font-size="11" fill="#556">Azure AI Video Indexer (account 793e...15fc)</text>
  <text x="78" y="768" font-size="11" fill="#556">speech-to-text transcription; token via ARM</text>
  <text x="78" y="786" font-size="11" fill="#556">generateAccessToken; storage: tvtvideostorage</text>

  <rect x="480" y="700" width="380" height="110" rx="8" fill="#f7f9fb" stroke="#2a6fb0" stroke-width="1.5"/>
  <text x="498" y="728" font-size="14" font-weight="bold" fill="#16324f">tvt-translator</text>
  <text x="498" y="750" font-size="11" fill="#556">Azure AI Translator (S1)</text>
  <text x="498" y="768" font-size="11" fill="#556">translate v3 + languages endpoint</text>
  <text x="498" y="786" font-size="11" fill="#556">Entra bearer + resource-id headers</text>

  <rect x="900" y="700" width="400" height="110" rx="8" fill="#f7f9fb" stroke="#2a6fb0" stroke-width="1.5"/>
  <text x="918" y="728" font-size="14" font-weight="bold" fill="#16324f">tvt-openai</text>
  <text x="918" y="750" font-size="11" fill="#556">Azure OpenAI, deployment: gpt-4o</text>
  <text x="918" y="768" font-size="11" fill="#556">Responses API: summaries, paragraphing,</text>
  <text x="918" y="786" font-size="11" fill="#556">screenshot selection (vision); Entra bearer auth</text>

  <!-- flows -->
  <line x1="205" y1="128" x2="205" y2="196" stroke="#2a6fb0" stroke-width="1.5" marker-end="url(#arrow)"/>
  <line x1="716" y1="260" x2="684" y2="280" stroke="#2a6fb0" stroke-width="1.5" marker-end="url(#arrow)"/>
  <line x1="684" y1="420" x2="716" y2="450" stroke="#2a6fb0" stroke-width="1.5" marker-end="url(#arrow)"/>
  <line x1="250" y1="674" x2="250" y2="696" stroke="#2a6fb0" stroke-width="1.5" marker-end="url(#arrow)"/>
  <line x1="670" y1="674" x2="670" y2="696" stroke="#2a6fb0" stroke-width="1.5" marker-end="url(#arrow)"/>
  <line x1="1090" y1="624" x2="1090" y2="696" stroke="#2a6fb0" stroke-width="1.5" marker-end="url(#arrow)"/>
  <text x="290" y="690" font-size="10" fill="#889">workers call AI services + storage</text>
  <text x="686" y="248" font-size="10" fill="#889" text-anchor="end">image pull</text>

  <text x="1310" y="960" font-size="10" fill="#99a" text-anchor="end">generated from code on 2026-07-20</text>
</svg>
